<svg width="118" height="101" viewBox="0 0 118 101" fill="none" xmlns="http://www.w3.org/2000/svg">
<path fill-rule="evenodd" clip-rule="evenodd" d="M31.1641 44.0306C30.7442 45.8491 31.7342 51.7576 31.9684 53.6741C32.3399 56.7181 33.5222 61.3299 34.5351 64.202C35.6321 67.3325 36.2174 68.5911 37.686 71.5269L42.8157 79.4702C44.1404 81.136 45.1534 82.0841 46.5685 83.5666C48.0103 85.0772 50.6127 87.1934 52.281 88.3133C52.7582 88.634 53.3945 89.0768 53.8654 89.3453C55.0272 90.0007 56.072 90.6942 57.2453 91.202C57.6563 91.3802 57.7925 91.4845 58.1068 91.6461C58.5267 91.8625 58.6158 91.8026 58.9632 91.5736C59.4265 91.2694 60.1353 91.0137 60.6939 90.6828C64.2864 88.5894 63.7684 88.9407 67.0415 86.5622C68.1728 85.7402 71.722 82.2457 72.4053 81.4605C75.686 77.6874 78.674 73.3327 80.6159 68.7425C83.6955 61.4647 84.8943 56.0869 85.7062 47.6358C86.2852 41.5848 85.8716 45.5183 81.0397 42.1243C79.4817 41.0472 78.2615 39.5499 77.521 37.8065C77.222 37.0875 77.1482 36.4474 76.9102 35.7844L40.039 35.7984C39.5796 37.1155 39.5566 37.7073 38.8516 38.9646C37.6669 41.0885 35.2312 42.9502 32.8273 43.6247L31.1641 44.0306ZM58.8283 37.2199C58.8283 36.2018 59.2457 36.52 60.3198 36.5212C65.3566 36.5212 71.5298 36.394 76.2765 36.5289C76.5042 37.1193 76.6137 37.5902 76.8275 38.1208C77.7284 40.3567 79.8205 42.529 81.9635 43.5929C84.6067 44.9049 85.005 44.2851 85.061 45.0627C85.0625 45.1538 85.0566 45.2449 85.0431 45.335C85.0253 45.5475 85.0062 45.7002 84.9999 45.9357L84.7326 49.971C84.5532 52.03 83.5352 57.8698 82.988 59.4426C82.8123 59.9517 82.7793 60.5307 82.3848 61.6811C81.9534 62.9435 82.1812 63.3774 81.3604 63.3774C74.1691 63.3774 65.9025 63.5136 58.836 63.3367L58.8283 37.2199ZM42.5637 47.9323C43.3438 47.8674 44.7602 47.9247 45.6026 47.9399L48.2584 47.7707L48.2203 49.4848C48.0408 49.0649 48.2546 49.1247 47.9288 48.7557C47.3969 48.1525 45.5212 48.3472 44.9447 48.4681C44.8734 49.0216 44.9447 49.6286 44.9447 50.1975C44.9447 51.8645 44.5973 52.0707 46.4718 51.9294C47.1169 51.8811 47.0724 51.6393 47.6171 51.4433L47.5942 52.8495C47.0851 52.5504 47.2467 52.3532 46.4781 52.2985C46.0098 52.2654 45.343 52.2654 45.0223 52.455C44.8467 52.8139 44.8327 55.2114 45.0223 55.6911C45.7731 55.9456 47.0979 55.8362 47.6756 55.5308C48.5664 55.0625 48.4111 54.7672 48.938 53.9643C48.9558 54.1513 48.513 55.7751 48.3984 56.1493L42.8119 56.1251C42.9989 55.8095 43.1376 56.0627 43.2293 55.4328L43.2471 49.5421C43.1924 47.8827 43.1771 48.3497 42.5637 47.9323ZM58.0508 90.7477L55.9282 89.6877C54.1059 88.7536 52.9287 87.7355 51.3215 86.6602C50.4727 86.0927 50.0604 85.6205 49.5794 85.2451C48.8738 84.6843 48.2064 84.0773 47.5814 83.4279L46.767 82.7165C46.0378 82.0217 46.1116 81.8461 45.6751 81.5343C45.1585 81.1653 44.5922 80.4272 44.2104 79.9335C43.9177 79.5517 43.7574 79.3862 43.4787 79.0325L40.4245 74.7808C39.8481 73.9842 39.5808 73.4319 39.1151 72.5997L38.8351 72.1225C38.718 71.9239 38.6939 71.8959 38.5641 71.6363C38.363 71.2355 38.2395 70.9759 38.055 70.6183C37.037 68.5822 35.9566 66.3756 35.3343 64.1664H58.0546L58.0432 90.1687C57.9681 90.2094 57.8243 90.2832 57.7568 90.3252C58.1781 90.4944 57.9974 90.2043 58.0508 90.7477ZM66.82 70.2709C72.2921 69.4463 73.1714 75.0086 71.3618 77.1542C70.5219 78.1493 69.766 78.4751 68.4349 78.6634C62.898 79.4435 61.9449 73.8977 63.8142 71.7763C64.6338 70.8397 65.237 70.5089 66.82 70.2709Z" fill="white"/>
<path fill-rule="evenodd" clip-rule="evenodd" d="M77.32 11.8285C77.32 16.439 79.2288 22.3462 82.526 25.8076C82.8836 26.1893 83.1954 26.468 83.553 26.8625C84.4438 27.85 85.8029 28.8185 86.9978 29.5273L87.2523 29.7016C88.1711 30.399 90.052 31.1498 91.1973 31.5379C96.5968 33.3679 101.774 33.0841 106.738 36.3737C109.264 38.0509 111.235 39.8643 112.879 42.5609C111.826 42.3573 109.621 41.2081 108.406 40.7907C107.191 40.3733 102.657 39.0333 101.153 40.017C100.829 40.2295 100.75 40.5362 100.678 40.9664C100.533 41.8457 101.028 42.6309 101.237 43.2671C100.473 43.1844 99.6814 42.7365 98.7907 42.6309C97.8642 42.5278 96.7126 42.599 95.7518 42.5609C92.7892 42.4425 92.0372 41.3061 91.9774 44.4544C91.2927 44.0409 90.9351 42.9337 90.8168 42.1906C90.5355 40.423 90.7761 40.4548 91.6898 39.5843C92.662 38.6579 91.7916 37.3065 90.5788 37.9135C89.8229 38.2952 89.2859 39.2675 89.2719 40.269C89.2541 41.5021 89.0568 42.4654 89.2235 43.6833C89.319 44.3895 89.2668 44.597 89.5748 45.1353C90.2276 46.2742 89.3037 47.1166 92.3668 49.6478C92.7485 49.9672 92.9954 50.0066 93.409 50.4113C93.1265 51.0756 91.0407 52.4474 92.5704 53.5927C93.0145 53.9287 93.6889 54.1386 94.2502 54.425C94.693 54.6515 95.5952 55.2051 95.8141 55.471C96.0088 55.709 96.0279 55.952 96.1488 56.2346C96.159 56.2575 96.1755 56.2842 96.1844 56.3084C96.5446 57.2157 96.075 58.7848 97.3298 59.066C97.9202 59.1933 98.6367 58.6957 99.0477 58.3941L100.533 57.2653C103.802 54.962 110.165 56.0742 111.414 59.8219C111.455 59.9492 111.451 59.9619 111.488 60.0764L111.516 60.1566L111.58 60.3131C111.927 61.3032 111.935 62.8786 111.932 63.9297C111.949 65.0407 111.789 66.1472 111.458 67.2079C111.145 68.3176 110.301 69.0594 109.541 69.8637C108.782 70.668 108.068 71.5359 107.258 72.2701C106.917 72.5806 106.469 72.7792 106.416 73.4218C106.767 73.4447 106.588 73.4218 106.854 73.3913L107.037 73.3607C107.481 73.3047 107.473 73.3696 107.844 73.0769C108.186 72.8059 108.812 72.6112 109.207 72.3668C110.056 71.8631 110.819 71.2264 111.467 70.4809C112.581 69.2083 113.919 67.1035 114.416 65.2481C114.738 64.0443 115.408 59.15 115.139 57.8444C114.936 56.8062 114.584 55.8031 114.092 54.8666C113.979 54.659 113.852 54.46 113.71 54.271C113.344 53.7454 112.684 52.9043 112.483 52.4232C114.712 52.6065 113.994 51.787 114.511 51.5324C114.785 51.9982 114.825 52.4716 115.274 53.0328C115.656 53.5011 117.042 54.0203 117.029 52.6052C117.029 52.3214 117.019 52.0071 117.01 51.7208C116.983 50.8045 116.628 49.8921 116.346 49.1222L114.775 45.5756C114.588 45.1938 113.565 43.7749 113.667 43.3664C113.855 42.6029 114.597 43.5827 113.306 41.1521C112.16 38.9888 110.614 37.0799 109.053 35.2729C108.486 34.6163 106.352 32.5789 105.563 31.9999C104.87 31.4908 104.255 30.9487 103.654 30.5364C103.327 30.3112 103.008 30.0898 102.683 29.8607C102.48 29.7169 102.391 29.6329 102.174 29.4942C100.909 28.7052 98.6761 27.1514 97.8159 26.2339C95.4095 23.6659 96.7151 22.3169 96.6375 21.0749C95.4527 20.1841 95.0061 21.2022 94.1522 21.3994C93.6291 20.4704 93.5973 20.291 92.8465 19.4282C92.3069 18.8085 91.7941 18.3796 91.1375 17.7573C90.2212 16.8856 89.4831 16.0076 89.1166 14.7834C88.9614 14.2591 88.9499 13.4217 88.9436 13.3835L88.8927 13.2079C88.3251 13.185 88.0439 13.5732 87.6354 13.8442C86.4239 14.6396 85.36 15.5431 84.7759 16.8793C83.5784 19.6204 84.7683 22.0968 84.6919 23.6608C84.5189 23.2854 83.6052 22.2037 83.2476 21.5216C82.1277 19.3824 82.3161 17.4494 83.1279 15.328C83.6586 13.9409 85.5306 12.354 86.3794 11.0675C86.9724 10.1538 87.2981 9.60785 87.8072 8.67633C88.4773 7.415 89.0722 6.11514 89.5888 4.78356C89.8076 4.23509 90.0698 3.90677 90.0621 3.30485C89.1803 2.73728 88.0375 3.21577 87.7117 2.59603C87.8873 2.51586 89.3762 2.23335 89.6766 2.19008C91.0077 2.00047 92.5016 2.27916 93.423 3.24885C93.6368 3.4741 93.764 3.66244 93.9816 3.88513C94.1713 4.08238 94.5085 4.41961 94.7655 4.43615C95.2746 4.32417 95.9694 3.5619 95.9312 3.00579C95.8638 1.96611 93.0348 0 90.6272 0C87.769 0 83.9157 1.68106 81.5805 3.54791C80.3436 4.53669 79.5126 5.55474 78.6982 6.88202C78.0084 8.01715 77.32 10.2238 77.32 11.8285Z" fill="white"/>
<path fill-rule="evenodd" clip-rule="evenodd" d="M58.8284 37.225L58.8386 63.343C65.9026 63.5199 74.1691 63.3838 81.3629 63.3838C82.1838 63.3838 81.956 62.9485 82.3874 61.6874C82.7806 60.5421 82.8149 59.9529 82.9906 59.449C83.539 57.8748 84.5558 52.0363 84.7352 49.9773L85.0025 45.942C85.0025 45.7053 85.0279 45.5539 85.0457 45.3414C85.0592 45.2512 85.0651 45.1602 85.0636 45.069C85.0063 44.2915 84.6093 44.9112 81.9661 43.5992C79.8231 42.5354 77.7311 40.3631 76.8301 38.1272C76.6163 37.5978 76.5068 37.1257 76.2791 36.5352C71.5324 36.394 65.3579 36.5352 60.3224 36.5276C59.2483 36.5276 58.8309 36.2031 58.8309 37.2262L58.8284 37.225ZM68.2823 45.8275C68.9122 45.6124 69.6643 46.2245 68.6831 47.4322C68.4133 47.7656 67.9921 47.9005 67.9094 48.0685C68.4604 47.875 68.79 47.4716 68.9695 48.1321C68.7506 48.4426 68.0672 48.3663 67.6574 49.1132L68.2492 49.229C68.0787 50.821 66.8163 49.6388 66.4676 50.7001L66.6496 50.9343C66.6496 50.9445 66.7412 51.1035 66.7565 51.129C67.0326 50.8274 67.0199 50.7778 67.4487 50.7281C67.4958 52.5224 67.2082 52.0389 67.067 53.0378C67.4297 53.3471 68.379 54.0215 67.6931 54.6362C67.7147 54.6591 67.7516 54.6565 67.7643 54.6998C67.7771 54.7431 67.8178 54.7469 67.8343 54.7621L68.4286 55.485C68.4388 55.5104 68.4477 55.5397 68.4592 55.5651L68.6106 55.9176C69.9341 55.9902 70.2649 55.5359 71.1175 56.5539C72.0376 55.6529 72.4436 55.9176 73.8434 55.9405C74.0419 55.4964 73.865 55.4837 74.2977 54.9149C74.4568 54.7062 74.4249 54.8092 74.4669 54.5458C74.612 53.6779 74.3664 53.571 75.2305 53.146C75.2203 52.637 74.976 52.4652 74.8589 52.0007C74.7418 51.5362 74.8436 51.6864 74.8589 51.3784C74.8742 51.0704 74.8156 51.1621 74.8156 50.7421C75.3908 50.7421 75.3183 50.7701 75.5881 51.1633C75.6033 51.143 75.6224 51.0844 75.6275 51.0997L75.8744 50.5309C74.9989 49.873 74.1157 50.4596 73.9757 49.2227L74.5178 49.042C74.5445 49.0334 74.5698 49.021 74.5929 49.0051C73.7212 47.9399 73.5316 48.7327 73.342 48.0239C73.5634 47.7223 73.5965 47.66 74.2671 48.0239C74.9378 48.3879 74.9543 48.5813 75.0816 48.8664L76.0767 50.0193C76.1365 49.6146 75.9571 49.5103 75.854 49.1285L75.3043 49.2049C74.8474 48.0443 73.244 47.618 73.1587 46.591C73.1091 45.9891 73.3814 45.7473 73.9375 45.7549C73.9834 46.3391 73.8765 45.8962 73.6461 46.4892C74.1666 47.4627 75.4035 47.7351 75.6542 48.8536C75.6542 48.762 75.6542 48.505 75.6657 48.4464L75.8031 48.0099C76.4267 48.0099 76.0958 47.9488 76.3618 48.3293C76.7283 48.8511 76.2905 48.4312 76.9408 48.6971C76.9841 49.3868 76.7665 49.8424 76.2778 50.1949C76.4534 50.5563 76.442 50.2878 76.5323 50.8096C76.8988 50.5105 76.5145 50.6072 77.1686 50.5665C77.1686 50.9063 77.2335 51.666 77.1686 51.9371C77.0821 52.329 76.7257 52.5339 76.7868 52.7171C77.077 52.2857 77.1126 52.4741 77.3722 51.904C77.5224 51.5757 77.2857 51.7118 77.6585 51.5515C77.913 51.7296 77.913 51.5158 77.9232 52.0427C77.9359 52.6344 77.2628 53.1256 76.7372 53.1155C76.7652 53.1358 76.8148 53.1155 76.8314 53.1575C76.9446 53.4692 76.8314 53.1205 77.0057 53.2478C77.18 53.3751 77.3735 53.4501 77.0579 53.9414C76.5183 54.7851 76.3096 53.9757 75.7764 55.2674C75.6364 55.6071 75.5804 55.8095 75.2966 56.0067C75.1254 56.1219 74.9322 56.2003 74.7291 56.2371C74.8792 56.5425 75.2826 56.7563 74.5115 56.9102C73.398 57.1329 72.3926 55.6568 71.5388 56.9522C71.6813 57.3785 71.9129 57.334 71.9485 57.731C71.9969 58.2897 71.9587 57.8977 71.8824 58.067C71.4166 57.8965 71.4026 57.6763 71.1188 57.4562C70.8541 57.9181 70.8643 57.9652 70.2967 58.0072C70.3896 57.1724 70.6505 57.6 70.7078 56.8415L70.4431 56.6405C70.0893 56.433 69.6019 56.349 69.1972 56.5666C68.365 57.0133 68.6055 56.979 67.4386 56.9013C67.2413 56.3605 67.3228 56.5743 67.5136 56.218C66.8863 55.9876 66.6992 55.7306 66.4778 55.1465C66.1266 54.2239 65.9688 54.6845 65.3325 54.117C64.8235 53.6677 65.307 53.328 64.8311 52.791C64.4099 52.3163 64.1312 51.8022 64.798 51.4688C64.823 51.4923 64.8392 51.5238 64.8438 51.5578C64.8973 51.9651 65.0894 52.3583 65.4483 52.5632C65.321 52.2285 65.3134 52.2807 65.0563 52.119L65.2345 50.5232C65.8402 50.5843 65.4114 50.7867 65.8975 50.5131C65.9064 49.607 65.279 49.8437 65.2879 48.7747L65.5615 48.6475C65.8822 48.4948 65.928 48.3153 66.166 47.9883C66.5656 48.0583 66.3022 48.0188 66.5401 48.1156C67.5671 48.5495 66.0069 48.0367 66.8685 48.2695C67.2744 48.0074 67.6753 47.4449 68.0634 47.1242C68.8842 46.4345 68.7378 46.6279 68.3981 46.0515C68.2683 45.8517 68.3586 45.97 68.281 45.8262L68.2823 45.8275Z" fill="#D5A96B"/>
<path fill-rule="evenodd" clip-rule="evenodd" d="M25.0024 43.8614C25.0775 43.248 25.5267 42.8675 25.2505 42.2402C24.8904 42.0658 23.6713 42.4107 23.0388 42.4183C22.1569 42.4298 21.3641 42.4921 20.4199 42.5023C16.9954 42.5405 16.6251 43.1755 15.9099 43.2659C15.8997 42.44 16.3197 41.4766 16.2382 40.2982C15.6821 39.1682 8.75684 39.1695 4.4034 43.3346C1.69793 45.9166 0.942027 47.6778 0.161945 51.0934C0.0181458 51.722 -0.106565 54.299 0.141584 54.8729C0.756232 54.9111 0.427911 54.8945 0.95348 53.7276C1.11764 53.3649 1.40651 52.7426 1.61521 52.3163C2.05934 51.4039 2.63326 50.7294 3.19319 49.9163C3.32045 50.1593 1.40524 54.7227 1.19399 55.289C0.803317 56.3376 0.642974 57.0414 0.40246 58.3317C0.127586 59.7837 0.415185 61.1657 0.636611 61.7028C0.649268 61.7348 0.665039 61.7654 0.683696 61.7944C1.05528 61.7346 1.08074 61.9076 1.29453 60.4251C1.37379 59.8565 1.48467 59.2927 1.62667 58.7364C1.74374 58.2605 2.60781 57.0044 2.97304 56.2575C3.01376 56.3911 2.59127 58.0212 2.56709 58.5913C2.47801 61.3032 2.57727 64.4311 3.48334 66.8974L4.8577 69.6677L5.79304 70.7049C6.25752 71.1668 8.97445 73.1393 9.81943 72.6519C9.76852 72.2014 9.67435 72.4063 9.29895 71.994C8.02639 70.5941 6.72201 68.4308 5.90248 66.7892C4.61973 64.211 4.55102 61.4241 6.14554 59.1385C7.3812 57.3671 9.69344 55.6593 12.8329 56.1747C14.0558 56.3758 15.4709 56.9815 16.4444 57.4473L18.6548 58.8268C20.5815 60.5193 20.556 56.8225 21.4392 55.569C22.5489 53.9923 26.6962 52.7172 24.73 51.3288C24.6028 51.241 24.4844 51.1456 24.3483 51.0565L24.2783 51.0145C22.6863 50.0626 24.954 50.466 26.882 47.0581C28.0349 45.022 28.4752 42.3356 27.8376 39.9381C26.8641 36.2782 25.1169 38.1094 25.0851 38.5307C25.0329 39.2217 25.7456 39.8388 26.1031 40.3657C27.1454 41.9131 26.5867 43.5751 25.0075 43.8576" fill="white"/>
<path fill-rule="evenodd" clip-rule="evenodd" d="M22.0156 4.22862C23.6063 4.40169 23.1279 3.08332 25.1411 2.39359C26.5409 1.91256 27.2484 2.19125 28.3848 2.34778C28.9091 2.42031 29.1484 2.33505 29.296 2.78172C28.6699 3.22839 27.9356 2.62901 27.1492 2.97133C26.9532 3.48036 27.2993 4.19808 27.6264 5.04561C28.8111 8.12394 30.9236 11.5713 32.9597 13.8937C34.0579 15.1459 34.5351 16.0571 34.558 18.041C34.5707 19.1863 34.3315 20.4589 33.9446 21.3217C33.8428 21.5508 33.7321 21.7225 33.6443 21.9007C33.3898 22.4352 32.8808 23.4278 32.3718 23.6454C33.0233 19.6355 33.7207 16.8766 30.1028 14.2399C29.6676 13.923 28.9956 13.3338 28.3403 13.3236C27.4851 15.8344 26.8005 17.6287 24.5073 19.2894C24.1323 19.5847 23.724 19.8349 23.2908 20.0351C21.4672 20.9259 20.8156 20.3304 20.005 20.4691C20.005 21.0939 20.2481 20.7579 20.6807 22.1234C20.875 22.7995 20.8776 23.5163 20.6884 24.1939C20.299 25.4117 19.4425 26.3572 18.5899 26.9859C18.3036 27.1958 18.1458 27.2722 17.8849 27.486L15.7635 28.9622C15.2278 29.3007 14.8498 29.5412 14.3357 29.9255C13.8216 30.3098 13.3444 30.5936 12.8672 30.9728C12.5834 31.1993 12.4536 31.2782 12.2029 31.4997C11.7855 31.8687 11.8122 31.959 11.2561 32.2988C10.5715 32.7162 8.35341 35.0157 7.8202 35.624C6.86069 36.7248 4.15649 40.1353 4.15649 41.7005C4.74442 41.5733 4.76351 41.1673 5.18345 40.7296C6.81742 39.032 6.78434 39.1439 8.27196 37.8345C10.2762 36.0694 13.6002 34.6912 16.1619 33.8437C18.2552 33.1502 20.878 32.8906 22.8746 32.4935L26.0433 31.6027C28.8786 30.4994 29.0389 30.2487 31.2201 28.8425C32.0199 28.3118 32.7571 27.6923 33.4178 26.996L34.4066 26.0238C35.3734 24.9769 36.2515 23.8515 37.0319 22.6592C38.8071 19.8175 39.7666 16.8766 39.7654 13.2422C39.7654 9.37614 37.5015 4.95653 34.2933 2.84789C33.7716 2.5043 33.4954 2.13399 32.9495 1.89983C30.4438 0.821974 28.8697 -0.151537 25.7557 0.0393473C24.2223 0.127154 21.8655 1.32591 21.4634 2.64683C21.2483 3.3531 21.7331 3.78196 22.0144 4.22862" fill="white"/>
<path fill-rule="evenodd" clip-rule="evenodd" d="M51.5569 24.0361C51.4699 24.2728 51.3357 24.4893 51.1624 24.6724C50.0388 24.7017 48.4035 23.2993 47.8538 22.6541L47.6222 22.4441C46.2987 21.3421 46.2223 18.7792 46.7097 17.0676C46.9503 16.2213 47.7023 14.7502 47.4313 13.5973C46.3458 13.5528 43.7994 15.9643 43.5372 16.5038C43.4265 16.7303 43.1046 18.1683 43.0893 18.4699C42.8921 22.4365 46.3127 23.9101 47.1615 26.0531C47.4567 26.804 47.2709 27.5802 47.4593 28.0892C47.9441 29.3758 49.3236 29.4572 50.7107 29.0437C51.6676 28.7586 54.0779 27.8907 55.2016 27.7622C55.638 27.7126 55.8646 27.6757 56.2349 27.6069C56.8712 27.4873 57.9096 27.509 58.5815 27.5051C61.7743 27.4911 63.8283 28.0791 66.4536 28.9393C67.4805 29.2765 69.3563 29.6214 69.864 28.3463C70.0498 27.8805 69.8004 26.4705 71.0819 24.8709C72.6166 22.9621 73.0518 23.0244 73.9464 20.8522C74.2429 20.1319 74.3714 20.2566 74.4554 18.9204C74.5738 17.0956 74.1233 16.2697 73.1956 15.4209C72.525 14.8075 70.8783 13.8174 70.004 13.8823C69.5293 17.0638 73.3559 17.1617 70.9673 20.8369C70.6772 21.2836 68.0659 24.0361 67.4423 24.5006C66.7602 25.0096 66.0425 24.4039 65.9267 23.9916C65.7995 23.5258 66.6903 22.9506 66.9448 22.7101C67.8127 21.8906 69.0432 19.1546 69.3626 17.9278C70.2051 14.679 67.4741 9.73888 62.3521 11.7712C61.7158 12.0257 61.3964 12.3031 60.7321 12.5538C56.4576 14.1636 55.0883 10.0392 51.095 11.6337C50.0044 12.0689 49.1963 13.0335 48.6364 13.9956C47.4186 16.0966 47.8729 18.5157 49.0678 20.473C49.2141 20.7122 49.3325 20.9692 49.5094 21.2454L51.0415 23.2879C51.1303 23.3839 51.2124 23.486 51.2871 23.5933L51.5569 24.0361Z" fill="white"/>
<path fill-rule="evenodd" clip-rule="evenodd" d="M28.4994 41.5046C28.3238 43.7379 28.5694 48.2771 28.8519 50.3998C28.9346 51.0246 29.0211 52.1648 29.1471 52.7057C29.2731 53.2465 29.4271 54.2684 29.5009 54.8487L29.9361 56.984C30.6157 60.8081 31.99 65.2557 33.4993 68.8329C34.231 70.5635 35.9719 74.0847 36.9874 75.5889C37.3323 76.0979 37.5957 76.6795 37.9265 77.158L40.0454 80.1714C40.1251 80.3053 40.2148 80.4329 40.3139 80.5532L40.6346 80.8802C41.7315 82.2177 42.9252 83.8567 44.2181 84.9397L46.23 86.8485C48.9164 89.3937 53.7178 92.6667 57.0786 93.9965C57.8231 94.2918 58.2583 94.6659 59.0778 94.3045C60.5222 93.6682 62.8841 92.6501 64.1592 91.7593C64.7407 91.3521 65.1836 91.1383 65.7728 90.7502C66.0756 90.5504 66.8417 89.9867 67.2133 89.6838C68.9554 88.284 69.453 88.0651 71.4599 86.1855L75.2088 82.3055C75.4137 82.0395 75.4086 81.8983 75.7471 81.5356C78.7555 78.3274 82.2843 71.8437 83.8508 67.7181C84.2682 66.6199 85.6209 63.245 85.8373 62.0883C85.9722 61.3718 86.1987 60.6477 86.3641 59.9784C87.0658 57.1312 87.6016 54.2457 87.9688 51.3364C88.1444 50.0193 88.8723 42.3674 88.3569 41.5656C87.9345 41.3506 86.9571 41.4626 86.3705 41.4384C85.4517 41.39 85.3524 41.2946 84.6309 41.0375C83.6117 40.6962 82.6658 40.166 81.8427 39.4748C81.1733 38.8894 80.3513 37.8498 79.9822 36.987C79.7769 36.4422 79.6111 35.8834 79.4859 35.3148C79.1576 33.6885 80.0662 33.1515 78.6397 33.1616C65.615 33.28 51.9896 33.1616 38.8975 33.1616C36.332 33.1616 38.1581 33.2889 37.2305 36.184C37.0551 36.7338 36.8213 37.2632 36.5331 37.7632C35.3229 39.6504 33.0692 41.189 30.8702 41.4308C30.0952 41.516 29.2718 41.4155 28.4994 41.5097V41.5046ZM30.3981 43.5877C30.93 43.2696 32.7396 43.3332 34.5135 42.2821C36.3435 41.1928 37.1859 40.5005 38.3948 38.5166C39.3276 36.9895 39.1291 36.2845 39.4714 35.2372C40.4195 35.0349 43.0639 35.1659 44.1863 35.1659C47.4084 35.1659 76.7079 35.0552 77.4816 35.2156L77.8812 37.0099C78.0519 37.5363 78.2673 38.0472 78.5251 38.5369C79.0341 39.4123 79.6784 40.2018 80.434 40.8759C81.2261 41.5749 82.1177 42.1521 83.0796 42.5888C84.949 43.4541 85.4542 43.1818 86.4545 43.4796C86.6873 44.6363 86.0345 51.0933 85.7609 52.4473C85.5064 53.7364 85.3791 55.1515 85.0839 56.5043C84.7263 58.1586 83.9921 61.6085 83.3481 63.203C83.338 63.2272 83.324 63.2539 83.3138 63.2768C83.3036 63.2998 83.2871 63.3252 83.2769 63.3468C83.2667 63.3685 83.2501 63.3939 83.24 63.4156C83.1776 63.5428 83.24 63.3456 83.1407 63.6421C83.1102 63.7324 83.0644 63.9806 83.0338 64.1002C82.2932 67.0678 78.2744 75.2987 76.0347 77.9037C75.9902 77.9546 75.9431 77.9966 75.8756 78.0767C75.5244 78.5043 75.2725 79.0095 74.6311 79.7705C74.2493 80.2261 74.033 80.5913 73.5519 81.0851C73.2325 81.4134 72.8164 81.9135 72.4206 82.3577C71.2831 83.6176 70.0611 84.7987 68.7633 85.8928L66.404 87.7813C66.2767 87.8857 66.2182 87.9531 66.1087 88.0358L65.3961 88.5232C64.5371 89.1735 63.8932 89.4815 63.2226 89.951C62.744 90.2774 62.2483 90.5777 61.7375 90.8507C61.2195 91.1307 58.9086 92.36 58.4746 92.3536C57.4909 92.3396 53.2088 89.6304 52.1678 88.9775C51.1497 88.3412 48.3387 86.1346 47.4809 85.2756C47.2086 85.002 47.0865 84.9639 46.8319 84.7284C45.9895 83.9496 45.114 83.0041 44.4662 82.2966C41.7633 79.3442 41.5126 78.7499 39.2653 75.5125C38.97 75.0875 38.7104 74.5708 38.3478 74.0224C37.9851 73.4739 37.8387 73.0158 37.4748 72.396C35.5659 69.1841 33.7093 63.8699 32.7421 60.355C32.2713 58.6434 31.3283 54.1564 31.1387 52.3875C31.084 51.8785 30.9962 50.6059 30.8842 50.1745C30.7086 49.4734 30.5215 46.6788 30.5024 45.8478C30.4999 45.1174 30.3892 44.1286 30.3968 43.5839L30.3981 43.5877Z" fill="white"/>
<path fill-rule="evenodd" clip-rule="evenodd" d="M58.0508 90.7477C57.9974 90.2044 58.1781 90.4932 57.7645 90.3087C57.832 90.2667 57.9758 90.1942 58.0508 90.1522L58.0623 64.1499H35.3419C35.9655 66.3578 37.0497 68.5631 38.0627 70.6018C38.2434 70.9632 38.3668 71.2228 38.5717 71.6198C38.699 71.8744 38.7257 71.9074 38.8428 72.106L39.1227 72.5832C39.5898 73.4167 39.8557 73.9677 40.4322 74.7643L43.4864 79.016C43.765 79.3698 43.9254 79.5377 44.2181 79.917C44.5998 80.4107 45.1661 81.1488 45.6828 81.5178C46.1193 81.8296 46.0455 82.0052 46.7747 82.7001L47.5904 83.4178C48.2153 84.0671 48.8828 84.6742 49.5883 85.235C50.0681 85.6168 50.4791 86.0825 51.3304 86.6501C52.9377 87.7254 54.1148 88.7447 55.9371 89.6775L58.0508 90.7477ZM49.5705 69.3801L50.1202 69.5481C50.0451 70.0457 50.063 70.1844 50.2907 70.6463C50.9678 70.5191 51.459 70.6832 52.0202 70.5814C52.3523 70.5216 54.0232 69.5558 54.1059 71.1159C52.8206 71.303 53.2889 71.1248 52.93 71.4531L51.8967 71.9622C51.5302 72.0347 51.6931 71.9202 51.3635 71.9087C51.0123 71.896 50.6967 72.1492 50.4727 72.2841C50.6572 72.8415 50.9003 72.7537 51.7033 73.3022C52.3943 73.7743 52.958 73.4294 52.6641 74.5747C52.239 74.7402 52.3154 74.4818 51.4984 74.3724L50.306 74.165L49.9853 73.5758C49.7092 73.8303 49.8174 73.9423 49.5399 74.1917C49.2091 74.4907 49.0309 74.3113 48.6657 74.5009C48.8629 74.8496 49.2702 74.7084 49.302 75.3777C49.3351 75.9669 49.0398 75.8791 49.0996 76.6821C50.3951 77.2535 49.5692 76.7712 50.6394 76.7737C50.8163 77.2293 50.871 76.9264 50.8621 77.5882C50.1991 77.5665 50.0184 77.4927 49.6876 77.7231C48.6211 78.4662 50.474 77.4685 49.4139 77.9496C49.0322 77.8007 49.1594 77.7307 48.8617 77.6569C47.6858 77.3591 48.5117 77.5144 47.8372 77.2853L48.0243 76.1845C46.9185 76.4034 47.4504 77.0333 46.202 77.2878C46.0749 77.6311 45.9969 77.9905 45.9704 78.3555C46.5418 78.4446 46.753 78.4281 46.6754 79.058C45.6255 79.3201 45.6573 78.7487 44.9205 78.549C44.9091 76.9175 44.157 77.1962 45.4563 76.2431C45.4563 75.8855 45.3761 75.8486 45.2985 75.4528C45.0245 75.4074 44.7699 75.2824 44.5662 75.0935C44.3626 74.9046 44.219 74.6601 44.1532 74.3902C44.2295 73.4523 46.2516 73.0604 45.9729 71.9405C45.4092 71.8896 45.427 72.6175 44.5031 72.6494C44.4599 72.0487 44.7284 71.6109 45.231 71.3959C45.9755 71.079 46.2402 71.5231 46.608 71.8285C46.6194 72.8848 46.0875 73.2793 45.3125 73.7794C44.6673 74.1968 44.6469 74.3889 45.1598 74.8674L46.9337 72.9726C46.8036 72.7518 46.7281 72.5031 46.7136 72.2472C46.6856 71.9545 46.6741 71.7013 46.6169 71.3373C46.4861 71.2857 46.3586 71.2262 46.2351 71.1592L46.202 70.304C45.992 70.5496 45.5759 70.813 45.1623 70.5751C45.2374 69.7937 45.5555 70.5496 46.0149 69.5825C46.258 69.0734 46.3458 68.7744 46.8027 68.5199C47.2061 68.2946 47.9161 68.3379 48.387 68.2476C49.1289 68.105 48.7688 68.2476 49.1378 68.3137C49.7257 68.4168 49.1823 68.0592 49.8861 68.3545C50.1813 69.3649 49.7804 68.9182 49.5705 69.3801Z" fill="#D5A96B"/>
<path fill-rule="evenodd" clip-rule="evenodd" d="M24.4476 87.4748C24.4959 87.8566 25.1551 89.0019 25.3587 89.3989C27.3299 93.2357 30.8218 92.3258 31.1323 92.4683C31.6414 92.9634 31.4123 92.9455 31.5841 93.5386C31.6503 93.7663 32.0448 94.3326 32.1835 94.5681C32.8528 95.7045 33.9854 97.57 35.1753 98.1223C36.3104 98.6492 39.0184 98.5245 40.8776 98.8515C41.7353 99.0029 42.845 99.1315 43.6887 99.3376C44.4955 99.5349 48.5932 100.61 49.05 100.61C48.9622 99.2829 46.174 95.5467 45.3125 94.6291C43.7634 92.9508 41.9799 91.5051 40.0174 90.3368C38.2498 89.2513 35.4603 88.0462 33.1799 87.6008C31.817 87.3335 30.3662 87.0803 28.927 87.0205C28.1365 86.9861 27.3446 87.0022 26.5562 87.0689C25.8932 87.135 24.879 87.0689 24.4476 87.4735" fill="white"/>
<path fill-rule="evenodd" clip-rule="evenodd" d="M76.8911 98.5918C80.4823 98.5918 81.7892 99.0169 84.1931 95.5466C84.5838 94.9828 85.2811 93.9915 85.4758 93.3171C85.5789 92.9556 85.4835 92.724 85.8245 92.4912C86.3094 92.1578 88.0579 92.7915 89.576 91.7747C91.2838 90.6294 91.691 89.3238 92.5818 87.789C93.1698 86.771 92.3349 86.9962 91.392 86.9924C87.9866 86.9784 84.216 87.3971 81.2496 88.5449C80.6986 88.7587 80.0764 89.054 79.5228 89.2245C76.9395 90.03 72.9284 93.1898 71.3631 95.1356C70.1135 96.6894 69.5306 97.6629 68.6526 99.4203C67.6218 101.483 69.1679 100.223 72.8215 99.3414C74.0291 99.05 75.5842 98.5931 76.8937 98.5931" fill="white"/>
<path fill-rule="evenodd" clip-rule="evenodd" d="M30.3968 43.584C30.3891 44.1287 30.4998 45.1175 30.5113 45.8416C30.5253 46.67 30.7111 49.4646 30.8931 50.1683C31.0012 50.5997 31.089 51.8735 31.1476 52.3813C31.3372 54.1514 32.2801 58.6385 32.751 60.3488C33.7181 63.87 35.5697 69.1778 37.4837 72.3898C37.8527 73.0095 37.9927 73.4676 38.3566 74.0161C38.7206 74.5646 38.9802 75.0812 39.2742 75.5063C41.5215 78.745 41.7722 79.338 44.4751 82.2903C45.1229 82.9979 46.0022 83.9446 46.8408 84.7222C47.0953 84.9576 47.2226 84.9958 47.4898 85.2694C48.3463 86.1284 51.1561 88.3312 52.1767 88.9713C53.2176 89.6241 57.4998 92.3334 58.4835 92.3474C58.9174 92.3537 61.2297 91.1257 61.7463 90.8445C62.2572 90.5714 62.7529 90.2711 63.2314 89.9448C63.9033 89.4739 64.546 89.1672 65.405 88.517L66.1176 88.0296C66.227 87.9519 66.2843 87.8845 66.4128 87.7751L68.7722 85.8866C70.07 84.7924 71.2919 83.6113 72.4295 82.3514C72.824 81.9085 73.2401 81.4097 73.5608 81.0788C74.0419 80.5851 74.2556 80.2199 74.64 79.7643C75.2762 79.0007 75.5308 78.4917 75.8845 78.0705C75.952 77.989 75.9991 77.9432 76.0436 77.8974C78.2871 75.2976 82.3059 67.0603 83.0427 64.0939C83.0732 63.973 83.119 63.7262 83.1496 63.6358C83.2476 63.3393 83.1865 63.5429 83.2488 63.4093C83.259 63.3877 83.2768 63.3622 83.2857 63.3406C83.2947 63.3189 83.3125 63.2922 83.3227 63.2706C83.3328 63.249 83.3468 63.2197 83.357 63.1968C84.0009 61.6023 84.7352 58.1472 85.0928 56.498C85.3855 55.1453 85.5089 53.7302 85.7698 52.4411C86.0434 51.0871 86.6962 44.6301 86.4633 43.4733C85.4618 43.1781 84.9579 43.4491 83.0885 42.5825C82.1266 42.1459 81.235 41.5686 80.4428 40.8697C79.6872 40.1955 79.043 39.4061 78.534 38.5307C78.2762 38.0409 78.0608 37.5301 77.8901 37.0036L77.4905 35.2093C76.7168 35.049 47.4173 35.1597 44.1952 35.1597C43.0728 35.1597 40.4271 35.0324 39.4803 35.2309C39.138 36.2783 39.3365 36.9833 38.4037 38.5103C37.1884 40.4981 36.3523 41.1827 34.5224 42.2758C32.7485 43.3308 30.9376 43.2646 30.4069 43.5815L30.3968 43.584ZM31.1705 44.0345L32.8248 43.6286C35.2287 42.9541 37.6605 41.0924 38.8491 38.9685C39.5541 37.7048 39.577 37.1194 40.0364 35.8023L76.9077 35.7883C77.1456 36.4513 77.2207 37.0914 77.5185 37.8104C78.259 39.5538 79.4791 41.0511 81.0371 42.1282C85.8729 45.5221 86.2826 41.5887 85.7036 47.6397C84.8955 56.0895 83.6981 61.4674 80.6134 68.7464C78.6714 73.3366 75.6835 77.6913 72.4028 81.4644C71.7194 82.2496 68.1702 85.744 67.0389 86.5661C63.7672 88.9445 64.2838 88.5933 60.6914 90.6867C60.1315 91.0125 59.4188 91.2695 58.9607 91.5775C58.6108 91.8078 58.5229 91.8676 58.1043 91.65C57.7899 91.4871 57.6538 91.3828 57.2427 91.2059C56.0694 90.6969 55.0259 90.0046 53.8628 89.3492C53.392 89.0833 52.7557 88.6379 52.2785 88.3172C50.6101 87.1973 48.0078 85.081 46.5659 83.5705C45.1509 82.088 44.1379 81.1399 42.8132 79.4741L37.6835 71.5308C36.2149 68.5963 35.6333 67.3313 34.5326 64.2123C33.5145 61.3401 32.3374 56.7283 31.9658 53.6844C31.7342 51.7628 30.7442 45.8556 31.1641 44.0307L31.1705 44.0345Z" fill="#D5A96B"/>
<path fill-rule="evenodd" clip-rule="evenodd" d="M32.1274 80.2084C32.1096 79.791 32.1274 79.6993 31.5051 79.1101C31.1997 78.82 30.804 78.6253 30.468 78.409L24.2045 74.2095C22.0322 72.7626 19.9846 71.3526 19.1893 68.7629C18.8393 67.6176 18.9768 66.8286 18.8953 65.5408C18.1114 64.9363 17.9804 64.7378 16.7154 65.5599C16.1619 65.92 15.3767 66.905 14.9695 67.0551C14.4859 66.3871 14.2568 65.7317 14.1945 64.6971C14.1029 63.17 14.4006 62.2194 14.3917 61.9776C14.3917 61.956 14.3803 61.9114 14.379 61.8936C14.3768 61.8641 14.3708 61.8351 14.3612 61.8071C13.4322 61.4419 8.67537 64.3522 10.7853 68.1063L11.6226 69.571C12.6699 71.0497 14.8804 72.6697 16.3044 73.7132C17.3224 74.4551 20.2633 76.1196 21.6619 76.6401C22.9141 77.1109 23.8507 77.6721 25.6246 78.2473L29.7783 79.6243C30.1702 79.7604 31.6795 80.2033 32.1223 80.2096" fill="white"/>
<path fill-rule="evenodd" clip-rule="evenodd" d="M101.856 67.0118L100.636 65.6909C100.22 65.3091 99.3379 65.1029 98.6138 65.2633C98.4076 66.3691 98.4865 67.1467 98.1047 68.2576C97.4914 70.0914 96.6846 71.224 95.2746 72.5067C94.5795 73.1668 93.8183 73.7536 93.003 74.2578L91.1476 75.4629C89.6524 76.3359 87.2027 77.84 85.9301 79.0668C84.9375 80.025 85.1042 79.4409 85.0126 80.0619C85.4606 80.389 85.7698 80.0759 86.2394 79.9347C86.5206 79.852 86.6351 79.8723 86.8896 79.8074C88.2182 79.4613 90.9122 78.4012 92.2344 77.9495L100.818 73.7984C101.225 73.5439 101.415 73.437 101.809 73.1455C102.855 72.3718 103.542 72.0168 104.436 70.9822C104.563 70.8358 104.676 70.7277 104.801 70.575C104.956 70.3892 105.012 70.2836 105.123 70.1372L105.823 69.2044C106.955 67.6124 106.961 65.8372 106.108 64.1651C105.46 62.8925 104.596 62.5807 103.628 61.933C103.415 61.7917 102.725 61.228 102.76 62.0221C102.806 63.0401 103.142 63.7973 103.014 64.9121C102.92 65.7291 102.505 66.7242 101.855 67.0131" fill="white"/>
<path fill-rule="evenodd" clip-rule="evenodd" d="M35.5443 85.8395C35.37 85.3673 34.4461 85.2185 33.9943 85.0021C33.3962 84.7145 32.9483 84.5262 32.3005 84.2169C31.5714 83.8708 31.635 83.4534 30.9542 83.0373C30.1626 82.5562 29.6294 82.7904 28.9562 82.569C29.3673 82.4074 29.7452 82.4264 30.0214 82.1325C29.9425 81.6896 30.2034 81.99 29.2298 81.4962C28.8481 81.3053 28.6419 81.2302 28.2474 81.0572C27.5285 80.7442 26.7832 80.4955 26.0204 80.314C20.3957 78.9244 17.3008 80.5265 11.5578 79.1127C10.8642 78.9422 9.56238 78.68 9.12589 79.2399C7.90678 80.8167 10.1503 82.8604 10.8057 83.909C11.0233 84.2564 11.2905 84.3518 11.5781 84.5453C13.0505 85.5531 14.0838 85.8344 16.0843 85.3088C17.9931 84.8074 18.6027 84.5211 20.5637 84.1635C21.4545 84.0019 25.2824 83.9892 26.1146 84.1749C26.8781 84.3455 27.7129 84.39 28.5452 84.586C29.9705 84.9207 31.8119 85.2057 33.2181 85.59C33.7793 85.7427 35.02 86.1563 35.5456 85.8305" fill="white"/>
<path fill-rule="evenodd" clip-rule="evenodd" d="M86.1872 82.756C88.1049 83.0703 89.2095 82.0421 91.4785 82.3743C90.8727 82.7089 87.1034 83.0742 85.0279 84.264C84.7466 84.4256 84.4412 84.614 84.1256 84.7858C83.3761 85.193 83.4652 85.1204 83.3621 85.5073C83.7439 85.7478 84.9286 85.3801 85.6972 85.2337C90.4732 84.3264 93.8544 83.419 98.9128 84.7603C100.822 85.2693 103.903 85.9858 105.69 84.5478C107.83 82.8273 107.589 81.5814 108.066 79.9475C108.194 79.5328 108.225 79.0946 108.158 78.666C107.557 78.5667 106.376 79.1636 105.554 79.2501C104.564 79.3532 103.61 79.4486 102.568 79.5632C100.511 79.7884 98.316 79.6599 96.1882 79.7108C93.2359 79.7808 90.7086 80.1575 88.0438 81.3791C87.6099 81.5776 87.3376 81.7762 86.9876 81.9619C86.4786 82.2292 86.0968 82.0778 86.1897 82.7522" fill="white"/>
<path fill-rule="evenodd" clip-rule="evenodd" d="M107.517 31.2262C107.78 30.9322 107.785 30.7757 107.961 30.3545C108.227 30.3965 108.204 30.1 108.55 31.0595C108.69 31.4413 108.792 31.524 109.006 31.9134C110.526 34.6621 112.733 36.9769 114.511 39.5068C115.09 40.3301 115.594 40.9448 116.038 41.8928C116.094 42.0137 116.165 42.1868 116.246 42.3268C116.559 42.8549 116.276 42.5978 116.755 42.7492C117.1 41.4958 114.176 35.8583 113.471 34.1136C111.037 28.0855 113.885 25.0364 113.869 24.2538C113.488 24.2373 113.432 24.2996 113.202 24.4765C113.04 24.6121 112.862 24.7286 112.673 24.8239C111.146 25.6969 110.172 26.2034 109.246 24.1749C108.792 23.1798 108.964 22.2813 108.228 21.4809C107.931 21.1564 107.528 20.6754 107.034 20.8981C106.938 20.9413 106.24 21.6743 106.085 21.8347C104.856 23.0996 103.885 24.731 104.194 27.1005L105.268 29.7729C105.731 30.3303 106.784 31.2478 107.515 31.2224" fill="white"/>
<path fill-rule="evenodd" clip-rule="evenodd" d="M7.21575 25.8584C6.37968 26.1257 5.58433 24.5133 3.62713 25.2221C3.62713 26.2033 6.47258 27.9569 3.51005 34.5055C3.18173 35.2499 2.85341 35.9562 2.54545 36.7032C2.25276 37.412 1.55412 38.3575 1.82009 39.1567C2.93867 39.6288 4.12215 37.4311 5.05367 36.3571L6.72836 34.2077C6.90398 33.9532 7.00324 33.7827 7.21066 33.4964C7.65352 32.8868 8.16254 31.4793 8.71865 31.1879C9.77742 30.6331 10.5219 30.9169 11.9446 29.4063C14.3205 26.8828 12.2106 21.1436 9.95431 21.0481C8.55449 20.9896 8.34834 22.6478 7.81768 23.9674C7.69042 24.2779 7.56316 24.4293 7.44863 24.8264C7.32138 25.2489 7.37864 25.5466 7.21575 25.8572" fill="white"/>
<path fill-rule="evenodd" clip-rule="evenodd" d="M49.5705 69.3802C49.7805 68.9182 50.1813 69.3649 49.895 68.3621C49.1913 68.0618 49.7347 68.4245 49.1467 68.3214C48.7739 68.2565 49.1378 68.1127 48.3959 68.2552C47.9251 68.3456 47.215 68.3023 46.8116 68.5275C46.356 68.7821 46.2682 69.0786 46.0239 69.5901C45.5632 70.5573 45.2451 69.8027 45.1712 70.5827C45.5848 70.8258 46.0022 70.5573 46.2109 70.3117L46.244 71.1668C46.3675 71.2339 46.495 71.2934 46.6258 71.345C46.6831 71.709 46.6945 71.9622 46.7225 72.2549C46.737 72.5108 46.8125 72.7594 46.9427 72.9802L45.1687 74.8751C44.6597 74.3966 44.6762 74.2032 45.3214 73.7871C46.0964 73.2869 46.6283 72.8963 46.6169 71.8362C46.2478 71.5333 45.9806 71.0854 45.24 71.4035C44.7373 71.6173 44.4688 72.0551 44.5121 72.657C45.4359 72.6252 45.4181 71.8935 45.9819 71.9482C46.2618 73.0681 44.2385 73.46 44.1621 74.3979C44.2279 74.6677 44.3716 74.9123 44.5752 75.1012C44.7788 75.2901 45.0334 75.415 45.3074 75.4605C45.385 75.8562 45.4703 75.8931 45.4652 76.2507C44.1659 77.2039 44.9167 76.9252 44.9295 78.5566C45.6599 78.7539 45.6345 79.3202 46.6843 79.0656C46.7619 78.437 46.5507 78.4523 45.9793 78.3632C46.0058 77.9982 46.0838 77.6387 46.2109 77.2955C47.458 77.041 46.9261 76.4111 48.0332 76.1922L47.8462 77.293C48.5219 77.522 47.696 77.3668 48.8706 77.6645C49.1633 77.7384 49.0449 77.8071 49.4229 77.9572C50.4829 77.4813 48.6301 78.4739 49.6965 77.7307C50.0273 77.5004 50.2055 77.5729 50.8711 77.5958C50.88 76.9341 50.8252 77.237 50.6484 76.7814C49.5781 76.7814 50.404 77.2611 49.1086 76.6898C49.0487 75.8881 49.344 75.9746 49.3109 75.3854C49.274 74.716 48.8655 74.8573 48.6746 74.5086C49.0373 74.319 49.218 74.4984 49.5489 74.1994C49.825 73.9448 49.7168 73.8341 49.9943 73.5834L50.3149 74.1726L51.5073 74.3801C52.3243 74.4895 52.248 74.7491 52.673 74.5824C52.967 73.4371 52.4019 73.7883 51.7122 73.3098C50.9105 72.7614 50.6662 72.8492 50.4817 72.2918C50.7107 72.1569 51.025 71.91 51.3724 71.9164C51.702 71.9278 51.5392 72.0436 51.9056 71.9698L52.939 71.4608C53.2966 71.1312 52.8283 71.3094 54.1148 71.1236C54.0321 69.5634 52.3612 70.5293 52.0291 70.5891C51.4679 70.6896 50.9767 70.5204 50.2997 70.654C50.0719 70.1895 50.0541 70.0534 50.1292 69.5558L49.5705 69.3802Z" fill="white"/>
<path fill-rule="evenodd" clip-rule="evenodd" d="M68.6818 47.431C69.663 46.2233 68.9109 45.6112 68.281 45.8263C68.3586 45.9701 68.2683 45.8517 68.3904 46.0591C68.7302 46.6356 68.8765 46.4409 68.0557 47.1319C67.674 47.459 67.2668 48.0227 66.8608 48.2772C65.998 48.0443 67.5594 48.5572 66.5325 48.1232C66.2958 48.0227 66.5579 48.0634 66.1583 47.996C65.9204 48.323 65.8746 48.505 65.5539 48.6552L65.2803 48.7824C65.2701 49.8514 65.8987 49.6147 65.8898 50.5207C65.4037 50.7943 65.8326 50.592 65.2268 50.5309L65.0487 52.1267C65.3032 52.2883 65.3108 52.2362 65.4406 52.5708C65.0818 52.366 64.8896 51.9727 64.8362 51.5655C64.8315 51.5315 64.8154 51.5 64.7903 51.4764C64.1235 51.8098 64.4086 52.324 64.8234 52.7986C65.2994 53.3356 64.8234 53.6754 65.3248 54.1246C65.9611 54.6922 66.1214 54.2315 66.4701 55.1541C66.6916 55.7382 66.8799 55.994 67.506 56.2256C67.3151 56.582 67.2337 56.3694 67.4309 56.909C68.5978 56.9866 68.3573 57.021 69.1896 56.5743C69.5943 56.3567 70.0804 56.4471 70.4354 56.6481L70.7001 56.8492C70.6429 57.6127 70.3833 57.1801 70.2891 58.0149C70.8592 57.9741 70.8465 57.9245 71.1112 57.4638C71.3949 57.684 71.4077 57.9042 71.8747 58.0747C71.951 57.9054 71.9892 58.2974 71.9409 57.7387C71.9065 57.3366 71.6736 57.3862 71.5311 56.9599C72.385 55.6644 73.3903 57.1406 74.5038 56.9179C75.275 56.7639 74.8716 56.5514 74.7214 56.2447C74.9245 56.208 75.1178 56.1296 75.289 56.0144C75.574 55.8184 75.6288 55.6161 75.7687 55.275C76.3019 53.9821 76.5106 54.7915 77.0502 53.949C77.3645 53.4578 77.1851 53.3955 76.998 53.2555C76.811 53.1155 76.9382 53.4769 76.8237 53.1651C76.8084 53.1219 76.7575 53.1435 76.7295 53.1231C77.2551 53.1333 77.9283 52.6421 77.9156 52.0504C77.9041 51.5235 77.9079 51.7373 77.6509 51.5592C77.278 51.7195 77.5147 51.5833 77.3645 51.9117C77.11 52.4805 77.0693 52.2934 76.7792 52.7248C76.7193 52.5403 77.0757 52.3367 77.1609 51.9447C77.2207 51.6737 77.1609 50.914 77.1609 50.5742C76.5106 50.6149 76.8962 50.5182 76.5246 50.8172C76.4381 50.2942 76.4496 50.5627 76.2701 50.2026C76.7575 49.8514 76.9764 49.3945 76.9331 48.7048C76.2829 48.4401 76.7193 48.86 76.3541 48.337C76.0869 47.9553 76.419 48.0125 75.7955 48.0176L75.658 48.4541C75.6504 48.5126 75.658 48.7697 75.6466 48.8613C75.3921 47.7427 74.1589 47.4717 73.6385 46.4969C73.8688 45.9039 73.977 46.3467 73.9299 45.7626C73.3738 45.755 73.1015 45.9968 73.1511 46.5987C73.2363 47.6269 74.841 48.0532 75.2966 49.2125L75.8464 49.1362C75.9494 49.518 76.1289 49.6223 76.0691 50.027L75.0816 48.8664C74.9619 48.5801 74.9289 48.3701 74.2633 48.0112C73.5977 47.6524 73.5596 47.7135 73.3381 48.0112C73.5278 48.7188 73.7199 47.9273 74.5891 48.9924C74.566 49.0083 74.5407 49.0207 74.514 49.0293L73.9719 49.21C74.1119 50.4469 74.9899 49.8603 75.8705 50.5182L75.6237 51.087C75.6237 51.0718 75.5982 51.1303 75.5842 51.1507C75.3144 50.7574 75.3882 50.7294 74.8118 50.7294C74.8118 51.1519 74.8741 51.0514 74.855 51.3657C74.8359 51.68 74.7341 51.5082 74.855 51.988C74.9759 52.4678 75.2164 52.6243 75.2266 53.1333C74.3664 53.5596 74.612 53.6665 74.4631 54.5331C74.4186 54.7966 74.4529 54.6935 74.2938 54.9022C73.8612 55.4697 74.0393 55.4837 73.8395 55.9279C72.4397 55.9024 72.035 55.6403 71.1137 56.5412C70.2585 55.5232 69.9302 55.9762 68.6068 55.905L68.4553 55.5525C68.4439 55.527 68.435 55.4977 68.4248 55.4723L67.8279 54.7546C67.8114 54.7406 67.7694 54.7342 67.758 54.6922C67.7465 54.6502 67.7096 54.6515 67.6867 54.6286C68.3726 54.0139 67.4233 53.3382 67.0606 53.0302C67.2018 52.03 67.4894 52.5148 67.4424 50.7205C67.0135 50.7689 67.0275 50.8185 66.7501 51.1214C66.7348 51.0959 66.6496 50.9369 66.6432 50.9267L66.4612 50.6925C66.8112 49.6312 68.0748 50.8198 68.2428 49.2215L67.6511 49.1057C68.0608 48.3587 68.7442 48.435 68.9631 48.1245C68.7836 47.4628 68.4541 47.87 67.903 48.0609C67.9857 47.8993 68.4121 47.7631 68.6767 47.4246" fill="white"/>
<path fill-rule="evenodd" clip-rule="evenodd" d="M66.9651 70.6514C65.8758 71.0205 65.5653 71.3412 65.2192 72.218C63.883 75.6539 65.7562 79.114 68.2148 78.2715C69.3359 77.8898 69.2456 77.8109 69.9964 76.7636C70.4278 76.1565 70.4201 74.6256 70.3463 73.7336C70.1834 71.7637 68.8193 70.0241 66.9715 70.6514" fill="white"/>
<path fill-rule="evenodd" clip-rule="evenodd" d="M66.8201 70.2709C65.237 70.5089 64.6338 70.8398 63.8079 71.7764C61.9372 73.8977 62.8929 79.4448 68.4286 78.6635C69.766 78.4752 70.5219 78.1545 71.3555 77.1542C73.1651 75.0087 72.2908 69.4463 66.8137 70.2709H66.8201ZM66.9588 70.6527C68.8104 70.0266 70.172 71.7662 70.3336 73.7349C70.4074 74.6256 70.4151 76.1527 69.9837 76.7648C69.2392 77.8121 69.3296 77.8885 68.2021 78.2728C65.7435 79.1153 63.8754 75.6564 65.2065 72.2192C65.5602 71.3412 65.8758 71.0205 66.9651 70.6514L66.9588 70.6527Z" fill="#D5A96B"/>
<path fill-rule="evenodd" clip-rule="evenodd" d="M42.5638 47.9324C43.1771 48.3498 43.1924 47.8827 43.2408 49.5422L43.223 55.4329C43.1313 56.0691 42.9926 55.8146 42.8056 56.1251L48.3921 56.1493C48.5066 55.7752 48.9495 54.1514 48.9317 53.9643C48.4048 54.7648 48.5499 55.0625 47.6693 55.5308C47.0915 55.8363 45.7604 55.9393 45.016 55.6912C44.8327 55.2114 44.8467 52.8152 45.016 52.4551C45.3367 52.2654 46.0048 52.2654 46.4718 52.2985C47.2353 52.3532 47.075 52.553 47.5878 52.8495L47.6158 51.4434C47.0725 51.6393 47.1183 51.8811 46.4705 51.9295C44.591 52.0707 44.9371 51.8646 44.9435 50.1975C44.9435 49.6287 44.8684 49.0217 44.9435 48.4681C45.5199 48.3472 47.397 48.1525 47.9276 48.7557C48.2534 49.1248 48.0396 49.0649 48.219 49.4849L48.2572 47.7708L45.6014 47.94C44.7589 47.9247 43.3426 47.8662 42.5625 47.9324" fill="#D5A96B"/>
<path fill-rule="evenodd" clip-rule="evenodd" d="M55.5973 8.70933C56.0351 9.06946 56.6777 9.40415 57.1244 9.89917C57.7251 10.5685 57.9681 10.7543 58.3537 11.5064C59.4367 11.5064 62.389 8.97657 60.1582 6.75976C59.9253 6.52815 59.6873 6.39454 59.4316 6.17565C59.0065 5.80916 59.1122 5.79389 58.4682 5.67554C58.3588 5.7837 58.4071 5.73789 58.3066 5.8906C57.2504 7.49912 56.7503 7.21152 55.8887 8.15449C55.6202 8.44845 55.6851 8.30211 55.5986 8.70933" fill="white"/>
</svg>
