<svg width="32" height="36" viewBox="0 0 32 36" fill="none" xmlns="http://www.w3.org/2000/svg">
<path d="M20.5 0.650391L31.75 11.9004V36H29.5V12.8496L22.75 6.09961V13.5H25V36H18.25V29.25H16V36H9.25V13.5H16V11.25H2.5V36H0.25V9H18.25V13.5H20.5V0.650391ZM22.75 33.75V15.75H11.5V33.75H13.75V27H20.5V33.75H22.75ZM4.75 15.75V13.5H7V15.75H4.75ZM4.75 20.25V18H7V20.25H4.75ZM4.75 24.75V22.5H7V24.75H4.75ZM4.75 29.25V27H7V29.25H4.75ZM4.75 33.75V31.5H7V33.75H4.75ZM20.5 18V20.25H18.25V18H20.5ZM20.5 22.5V24.75H18.25V22.5H20.5ZM16 18V20.25H13.75V18H16ZM16 22.5V24.75H13.75V22.5H16Z" fill="#D5A96B"/>
</svg>
