<svg width="36" height="23" viewBox="0 0 36 23" fill="none" xmlns="http://www.w3.org/2000/svg">
<path d="M33.3457 7.91797L35.4902 12.6465C35.8301 13.3848 36 14.1582 36 14.9668V16.25C36 16.6953 35.9355 17.123 35.8066 17.5332C35.6895 17.9434 35.5137 18.3242 35.2793 18.6758C35.0566 19.0273 34.7812 19.3496 34.4531 19.6426C34.125 19.9238 33.7617 20.1523 33.3633 20.3281C33.1875 20.7383 32.9531 21.1074 32.6602 21.4355C32.3789 21.7637 32.0566 22.0449 31.6934 22.2793C31.3418 22.502 30.9551 22.6777 30.5332 22.8066C30.123 22.9355 29.6953 23 29.25 23C28.4414 23 27.6914 22.8008 27 22.4023C26.3086 22.0039 25.7578 21.4531 25.3477 20.75H12.9023C12.4922 21.4531 11.9414 22.0039 11.25 22.4023C10.5586 22.8008 9.80859 23 9 23C8.19141 23 7.44141 22.8008 6.75 22.4023C6.05859 22.0039 5.50781 21.4531 5.09766 20.75H2.25C1.93359 20.75 1.64062 20.6914 1.37109 20.5742C1.10156 20.457 0.861328 20.2988 0.650391 20.0996C0.451172 19.8887 0.292969 19.6484 0.175781 19.3789C0.0585938 19.1094 0 18.8164 0 18.5V14C0 13.0742 0.175781 12.2012 0.527344 11.3809C0.878906 10.5605 1.35938 9.8457 1.96875 9.23633C2.58984 8.61523 3.30469 8.12891 4.11328 7.77734C4.93359 7.42578 5.8125 7.25 6.75 7.25H7.40039L13.166 1.48438C13.4824 1.16797 13.8457 0.927734 14.2559 0.763672C14.6777 0.587891 15.1113 0.5 15.5566 0.5H31.5V2.75H30.9902L33.3457 7.91797ZM15.5566 2.75C15.252 2.75 14.9883 2.86133 14.7656 3.08398L10.582 7.25H20.25V2.75H15.5566ZM9 20.75C9.31641 20.75 9.60938 20.6914 9.87891 20.5742C10.1484 20.457 10.3828 20.2988 10.582 20.0996C10.793 19.8887 10.957 19.6484 11.0742 19.3789C11.1914 19.1094 11.25 18.8164 11.25 18.5C11.25 18.1836 11.1914 17.8906 11.0742 17.6211C10.957 17.3516 10.793 17.1172 10.582 16.918C10.3828 16.707 10.1484 16.543 9.87891 16.4258C9.60938 16.3086 9.31641 16.25 9 16.25C8.68359 16.25 8.39062 16.3086 8.12109 16.4258C7.85156 16.543 7.61133 16.707 7.40039 16.918C7.20117 17.1172 7.04297 17.3516 6.92578 17.6211C6.80859 17.8906 6.75 18.1836 6.75 18.5C6.75 18.8164 6.80859 19.1094 6.92578 19.3789C7.04297 19.6484 7.20117 19.8887 7.40039 20.0996C7.61133 20.2988 7.85156 20.457 8.12109 20.5742C8.39062 20.6914 8.68359 20.75 9 20.75ZM22.5 7.25H30.5684L28.8281 3.41797C28.7344 3.21875 28.5938 3.06055 28.4062 2.94336C28.2305 2.81445 28.0312 2.75 27.8086 2.75H22.5V7.25ZM29.25 20.75C29.5664 20.75 29.8594 20.6914 30.1289 20.5742C30.3984 20.457 30.6328 20.2988 30.832 20.0996C31.043 19.8887 31.207 19.6484 31.3242 19.3789C31.4414 19.1094 31.5 18.8164 31.5 18.5C31.5 18.1836 31.4414 17.8906 31.3242 17.6211C31.207 17.3516 31.043 17.1172 30.832 16.918C30.6328 16.707 30.3984 16.543 30.1289 16.4258C29.8594 16.3086 29.5664 16.25 29.25 16.25C28.9336 16.25 28.6406 16.3086 28.3711 16.4258C28.1016 16.543 27.8613 16.707 27.6504 16.918C27.4512 17.1172 27.293 17.3516 27.1758 17.6211C27.0586 17.8906 27 18.1836 27 18.5C27 18.8164 27.0586 19.1094 27.1758 19.3789C27.293 19.6484 27.4512 19.8887 27.6504 20.0996C27.8613 20.2988 28.1016 20.457 28.3711 20.5742C28.6406 20.6914 28.9336 20.75 29.25 20.75Z" fill="#D5A96B"/>
</svg>
